<svg width="21" height="20" viewBox="0 0 21 20" fill="none" xmlns="http://www.w3.org/2000/svg">
<g clip-path="url(#clip0_62_1414)">
<path d="M6.26221 14.146L9.6493 14.1347L17.0324 6.82344C17.3196 6.53519 17.4808 6.14486 17.4808 5.73795C17.4808 5.33104 17.3196 4.94072 17.0324 4.65247L15.8106 3.43473C15.5189 3.15624 15.1312 3.00085 14.7279 3.00085C14.3247 3.00085 13.9369 3.15624 13.6453 3.43473L6.26221 10.7509V14.146ZM14.7299 4.52021L15.9485 5.72989L14.7251 6.95005L13.5066 5.74037L14.7308 4.5307L14.7299 4.52021ZM7.79446 11.3855L12.4195 6.80489L13.638 8.02344L9.01301 12.5984L7.79446 12.6041V11.3855Z" fill="white"/>
<path d="M4.72592 17.3146H15.4598C15.8662 17.3146 16.2559 17.1532 16.5433 16.8658C16.8306 16.5785 16.9921 16.1887 16.9921 15.7823V9.13396L15.4598 10.6662V15.7783H7.14528C7.12351 15.7783 7.10657 15.784 7.08399 15.784C7.06141 15.784 7.03399 15.7783 7.00334 15.7783H4.72592V5.04605H9.97834L11.5106 3.51379H4.72592C4.31954 3.51379 3.92981 3.67523 3.64245 3.96258C3.3551 4.24994 3.19367 4.63967 3.19367 5.04605V15.7799C3.19335 15.9813 3.23275 16.1809 3.30961 16.367C3.38647 16.5532 3.49928 16.7224 3.6416 16.865C3.78391 17.0075 3.95294 17.1206 4.139 17.1977C4.32506 17.2749 4.5245 17.3146 4.72592 17.3146Z" fill="white"/>
</g>
<defs>
<clipPath id="clip0_62_1414">
<rect width="19.3548" height="19.3548" fill="white" transform="translate(0.774292 0.580688)"/>
</clipPath>
</defs>
</svg>
