<svg width="24" height="24" viewBox="0 0 24 24" fill="none" xmlns="http://www.w3.org/2000/svg">
<path d="M16.629 13.891L17.085 13.438L16.026 12.374L15.572 12.827L16.629 13.891ZM18.614 13.248L20.525 14.287L21.24 12.969L19.33 11.931L18.614 13.248ZM20.892 16.351L19.472 17.764L20.529 18.827L21.949 17.415L20.892 16.351ZM18.606 18.218C17.156 18.354 13.406 18.233 9.344 14.195L8.286 15.258C12.718 19.665 16.937 19.881 18.746 19.712L18.606 18.218ZM9.344 14.195C5.473 10.345 4.831 7.108 4.751 5.703L3.253 5.788C3.353 7.556 4.148 11.144 8.286 15.258L9.344 14.195ZM10.719 8.015L11.006 7.729L9.95 6.666L9.663 6.951L10.719 8.015ZM11.234 4.094L9.974 2.41L8.773 3.31L10.033 4.993L11.234 4.094ZM5.733 2.043L4.163 3.603L5.221 4.667L6.79 3.107L5.733 2.043ZM10.191 7.483C9.661 6.951 9.661 6.951 9.661 6.953H9.659L9.656 6.957C9.60848 7.00491 9.56593 7.05752 9.529 7.114C9.475 7.194 9.416 7.299 9.366 7.432C9.24427 7.77533 9.21395 8.14441 9.278 8.503C9.412 9.368 10.008 10.511 11.534 12.029L12.592 10.965C11.163 9.545 10.823 8.681 10.76 8.273C10.73 8.079 10.761 7.983 10.77 7.961C10.776 7.94767 10.776 7.94567 10.77 7.955C10.7611 7.9688 10.751 7.98184 10.74 7.994L10.73 8.004L10.72 8.013L10.191 7.483ZM11.534 12.029C13.061 13.547 14.21 14.139 15.076 14.271C15.519 14.339 15.876 14.285 16.147 14.184C16.2988 14.1285 16.4406 14.0488 16.567 13.948L16.617 13.903L16.624 13.897L16.627 13.894L16.628 13.892C16.628 13.892 16.629 13.891 16.1 13.359C15.57 12.827 15.573 12.826 15.573 12.826L15.575 12.824L15.577 12.822L15.583 12.817L15.593 12.807L15.631 12.777C15.6403 12.771 15.638 12.7717 15.624 12.779C15.599 12.788 15.501 12.819 15.304 12.789C14.89 12.725 14.02 12.385 12.592 10.965L11.534 12.029ZM9.974 2.409C8.954 1.049 6.95 0.833 5.733 2.043L6.79 3.107C7.322 2.578 8.266 2.633 8.773 3.31L9.974 2.409ZM4.752 5.704C4.732 5.358 4.891 4.996 5.221 4.668L4.162 3.604C3.625 4.138 3.202 4.894 3.253 5.788L4.752 5.704ZM19.472 17.764C19.198 18.038 18.902 18.192 18.607 18.219L18.746 19.712C19.481 19.643 20.082 19.273 20.53 18.828L19.472 17.764ZM11.006 7.729C11.991 6.75 12.064 5.203 11.235 4.095L10.034 4.994C10.437 5.533 10.377 6.24 9.949 6.667L11.006 7.729ZM20.526 14.288C21.343 14.732 21.47 15.778 20.893 16.352L21.951 17.415C23.291 16.082 22.878 13.859 21.241 12.97L20.526 14.288ZM17.085 13.439C17.469 13.057 18.087 12.963 18.615 13.249L19.331 11.932C18.247 11.342 16.903 11.505 16.027 12.375L17.085 13.439Z" fill="#0B6162"/>
</svg>
